<mxfile host="65bd71144e" scale="7" border="0">
    <diagram id="uZbnWT608zLEFm8jR6ir" name="Page-1">
        <mxGraphModel dx="-35" dy="1124" grid="1" gridSize="10" guides="1" tooltips="1" connect="1" arrows="1" fold="1" page="1" pageScale="1" pageWidth="827" pageHeight="583" math="0" shadow="0">
            <root>
                <mxCell id="0"/>
                <mxCell id="1" parent="0"/>
                <mxCell id="122" value="" style="rounded=0;whiteSpace=wrap;html=1;" parent="1" vertex="1">
                    <mxGeometry x="1120" y="-410" width="1010" height="840" as="geometry"/>
                </mxCell>
                <mxCell id="121" value="" style="group" parent="1" vertex="1" connectable="0">
                    <mxGeometry x="1160" y="-280" width="990" height="710" as="geometry"/>
                </mxCell>
                <mxCell id="61" value="" style="rounded=0;whiteSpace=wrap;html=1;fillColor=#dae8fc;strokeColor=#6c8ebf;" parent="121" vertex="1">
                    <mxGeometry x="320" y="565" width="560" height="100" as="geometry"/>
                </mxCell>
                <mxCell id="63" value="" style="rounded=0;whiteSpace=wrap;html=1;fillColor=#dae8fc;strokeColor=#6c8ebf;" parent="121" vertex="1">
                    <mxGeometry x="320" y="190" width="560" height="270" as="geometry"/>
                </mxCell>
                <mxCell id="64" style="edgeStyle=orthogonalEdgeStyle;rounded=0;orthogonalLoop=1;jettySize=auto;html=1;exitX=0.5;exitY=1;exitDx=0;exitDy=0;endArrow=open;sourcePerimeterSpacing=8;targetPerimeterSpacing=8;entryX=0.25;entryY=0;entryDx=0;entryDy=0;fillColor=#6a00ff;strokeColor=#3700CC;" parent="121" target="76" edge="1">
                    <mxGeometry relative="1" as="geometry">
                        <Array as="points">
                            <mxPoint x="460" y="535"/>
                            <mxPoint x="380" y="535"/>
                        </Array>
                        <mxPoint x="460" y="495" as="sourcePoint"/>
                    </mxGeometry>
                </mxCell>
                <mxCell id="65" style="edgeStyle=orthogonalEdgeStyle;rounded=0;orthogonalLoop=1;jettySize=auto;html=1;exitX=0.5;exitY=1;exitDx=0;exitDy=0;entryX=0.25;entryY=0;entryDx=0;entryDy=0;endArrow=open;sourcePerimeterSpacing=8;targetPerimeterSpacing=8;fillColor=#6a00ff;strokeColor=#3700CC;" parent="121" target="77" edge="1">
                    <mxGeometry relative="1" as="geometry">
                        <Array as="points">
                            <mxPoint x="460" y="535"/>
                            <mxPoint x="568" y="535"/>
                            <mxPoint x="568" y="585"/>
                        </Array>
                        <mxPoint x="460" y="495" as="sourcePoint"/>
                    </mxGeometry>
                </mxCell>
                <mxCell id="67" style="edgeStyle=orthogonalEdgeStyle;rounded=0;orthogonalLoop=1;jettySize=auto;html=1;exitX=0.5;exitY=1;exitDx=0;exitDy=0;entryX=0.25;entryY=0;entryDx=0;entryDy=0;endArrow=open;sourcePerimeterSpacing=8;targetPerimeterSpacing=8;fillColor=#6a00ff;strokeColor=#3700CC;" parent="121" target="92" edge="1">
                    <mxGeometry relative="1" as="geometry">
                        <Array as="points">
                            <mxPoint x="460" y="535"/>
                            <mxPoint x="748" y="535"/>
                            <mxPoint x="748" y="585"/>
                        </Array>
                        <mxPoint x="460" y="495" as="sourcePoint"/>
                    </mxGeometry>
                </mxCell>
                <mxCell id="70" style="edgeStyle=orthogonalEdgeStyle;rounded=0;orthogonalLoop=1;jettySize=auto;html=1;exitX=0.75;exitY=0;exitDx=0;exitDy=0;entryX=0.5;entryY=1;entryDx=0;entryDy=0;endArrow=none;sourcePerimeterSpacing=8;targetPerimeterSpacing=8;fillColor=#d80073;strokeColor=#A50040;endFill=0;" parent="121" source="92" edge="1">
                    <mxGeometry relative="1" as="geometry">
                        <Array as="points">
                            <mxPoint x="837" y="545"/>
                            <mxPoint x="740" y="545"/>
                        </Array>
                        <mxPoint x="740" y="495" as="targetPoint"/>
                    </mxGeometry>
                </mxCell>
                <mxCell id="72" style="edgeStyle=orthogonalEdgeStyle;rounded=0;orthogonalLoop=1;jettySize=auto;html=1;exitX=0.75;exitY=0;exitDx=0;exitDy=0;entryX=0.5;entryY=1;entryDx=0;entryDy=0;endArrow=none;sourcePerimeterSpacing=8;targetPerimeterSpacing=8;fillColor=#d80073;strokeColor=#A50040;endFill=0;" parent="121" source="77" edge="1">
                    <mxGeometry relative="1" as="geometry">
                        <Array as="points">
                            <mxPoint x="597" y="545"/>
                            <mxPoint x="740" y="545"/>
                        </Array>
                        <mxPoint x="740" y="495" as="targetPoint"/>
                    </mxGeometry>
                </mxCell>
                <mxCell id="73" style="edgeStyle=orthogonalEdgeStyle;rounded=0;orthogonalLoop=1;jettySize=auto;html=1;exitX=0.75;exitY=0;exitDx=0;exitDy=0;endArrow=none;sourcePerimeterSpacing=8;targetPerimeterSpacing=8;fillColor=#d80073;strokeColor=#A50040;endFill=0;" parent="121" source="76" edge="1">
                    <mxGeometry relative="1" as="geometry">
                        <Array as="points">
                            <mxPoint x="460" y="545"/>
                            <mxPoint x="740" y="545"/>
                        </Array>
                        <mxPoint x="740" y="495" as="targetPoint"/>
                    </mxGeometry>
                </mxCell>
                <mxCell id="76" value="STANDARD&lt;br&gt;CALCULATION" style="rounded=0;whiteSpace=wrap;html=1;fillColor=#fff2cc;strokeColor=#d6b656;fontSize=14;" parent="121" vertex="1">
                    <mxGeometry x="340" y="585" width="160" height="60" as="geometry"/>
                </mxCell>
                <mxCell id="77" value="MODULE" style="rounded=0;whiteSpace=wrap;html=1;fillColor=#fff2cc;strokeColor=#d6b656;fontSize=14;" parent="121" vertex="1">
                    <mxGeometry x="530" y="585" width="150" height="60" as="geometry"/>
                </mxCell>
                <mxCell id="81" value="UI - User Interface" style="rounded=0;whiteSpace=wrap;html=1;fillColor=#e1d5e7;strokeColor=#9673a6;fontSize=16;" parent="121" vertex="1">
                    <mxGeometry x="340" y="210" width="520" height="60" as="geometry"/>
                </mxCell>
                <mxCell id="82" style="edgeStyle=none;curved=1;rounded=0;orthogonalLoop=1;jettySize=auto;html=1;exitX=0.741;exitY=0.996;exitDx=0;exitDy=0;entryX=0.25;entryY=0;entryDx=0;entryDy=0;endArrow=open;sourcePerimeterSpacing=8;targetPerimeterSpacing=8;exitPerimeter=0;" parent="121" source="81" target="84" edge="1">
                    <mxGeometry relative="1" as="geometry"/>
                </mxCell>
                <mxCell id="83" style="edgeStyle=none;curved=1;rounded=0;orthogonalLoop=1;jettySize=auto;html=1;exitX=0.75;exitY=0;exitDx=0;exitDy=0;entryX=0.914;entryY=1.009;entryDx=0;entryDy=0;entryPerimeter=0;endArrow=open;sourcePerimeterSpacing=8;targetPerimeterSpacing=8;" parent="121" source="84" target="81" edge="1">
                    <mxGeometry relative="1" as="geometry"/>
                </mxCell>
                <mxCell id="103" style="edgeStyle=orthogonalEdgeStyle;rounded=0;orthogonalLoop=1;jettySize=auto;html=1;exitX=0.25;exitY=1;exitDx=0;exitDy=0;endArrow=none;sourcePerimeterSpacing=8;targetPerimeterSpacing=8;startArrow=none;startFill=0;strokeColor=#3700CC;endFill=0;fillColor=#6a00ff;" parent="121" source="84" edge="1">
                    <mxGeometry relative="1" as="geometry">
                        <mxPoint x="460" y="495" as="targetPoint"/>
                        <Array as="points">
                            <mxPoint x="725" y="485"/>
                            <mxPoint x="460" y="485"/>
                        </Array>
                    </mxGeometry>
                </mxCell>
                <mxCell id="104" style="edgeStyle=orthogonalEdgeStyle;rounded=0;orthogonalLoop=1;jettySize=auto;html=1;strokeColor=#A50040;startArrow=none;startFill=0;endArrow=open;endFill=0;sourcePerimeterSpacing=8;targetPerimeterSpacing=8;fillColor=#d80073;entryX=0.75;entryY=1;entryDx=0;entryDy=0;" parent="121" target="84" edge="1">
                    <mxGeometry relative="1" as="geometry">
                        <mxPoint x="740" y="505" as="sourcePoint"/>
                        <Array as="points">
                            <mxPoint x="740" y="495"/>
                            <mxPoint x="815" y="495"/>
                        </Array>
                    </mxGeometry>
                </mxCell>
                <mxCell id="84" value="CUI - Console User Interface" style="rounded=0;whiteSpace=wrap;html=1;fillColor=#e1d5e7;strokeColor=#9673a6;fontSize=16;" parent="121" vertex="1">
                    <mxGeometry x="680" y="300" width="180" height="140" as="geometry"/>
                </mxCell>
                <mxCell id="105" style="edgeStyle=orthogonalEdgeStyle;rounded=0;orthogonalLoop=1;jettySize=auto;html=1;exitX=0.25;exitY=1;exitDx=0;exitDy=0;strokeColor=#3700CC;startArrow=none;startFill=0;endArrow=none;endFill=0;sourcePerimeterSpacing=8;targetPerimeterSpacing=8;fillColor=#6a00ff;" parent="121" source="109" edge="1">
                    <mxGeometry relative="1" as="geometry">
                        <mxPoint x="460" y="495" as="targetPoint"/>
                        <mxPoint x="385" y="440" as="sourcePoint"/>
                        <Array as="points">
                            <mxPoint x="365" y="485"/>
                            <mxPoint x="460" y="485"/>
                        </Array>
                    </mxGeometry>
                </mxCell>
                <mxCell id="106" style="edgeStyle=orthogonalEdgeStyle;rounded=0;orthogonalLoop=1;jettySize=auto;html=1;exitX=0.75;exitY=1;exitDx=0;exitDy=0;strokeColor=#A50040;startArrow=none;startFill=0;endArrow=open;endFill=0;sourcePerimeterSpacing=8;targetPerimeterSpacing=8;fillColor=#d80073;entryX=0.75;entryY=1;entryDx=0;entryDy=0;" parent="121" target="109" edge="1">
                    <mxGeometry relative="1" as="geometry">
                        <mxPoint x="475" y="440" as="targetPoint"/>
                        <mxPoint x="740" y="505" as="sourcePoint"/>
                        <Array as="points">
                            <mxPoint x="740" y="495"/>
                            <mxPoint x="415" y="495"/>
                        </Array>
                    </mxGeometry>
                </mxCell>
                <mxCell id="91" value="APP_MANAGER" style="rounded=0;whiteSpace=wrap;html=1;fontStyle=1;fillColor=#f8cecc;strokeColor=#b85450;fontSize=14;" parent="121" vertex="1">
                    <mxGeometry y="190" width="120" height="275" as="geometry"/>
                </mxCell>
                <mxCell id="92" value="EXIT" style="rounded=0;whiteSpace=wrap;html=1;fillColor=#fff2cc;strokeColor=#d6b656;fontSize=14;" parent="121" vertex="1">
                    <mxGeometry x="710" y="585" width="150" height="60" as="geometry"/>
                </mxCell>
                <mxCell id="93" value="UI" style="text;strokeColor=none;fillColor=none;html=1;align=center;verticalAlign=middle;whiteSpace=wrap;rounded=0;rotation=90;fontStyle=1;fontSize=20;" parent="121" vertex="1">
                    <mxGeometry x="883" y="317" width="60" height="30" as="geometry"/>
                </mxCell>
                <mxCell id="95" value="BACKEND" style="text;strokeColor=none;fillColor=none;html=1;align=center;verticalAlign=middle;whiteSpace=wrap;rounded=0;rotation=90;fontStyle=1;fontSize=20;" parent="121" vertex="1">
                    <mxGeometry x="880" y="600" width="60" height="30" as="geometry"/>
                </mxCell>
                <mxCell id="96" style="edgeStyle=orthogonalEdgeStyle;rounded=0;orthogonalLoop=1;jettySize=auto;html=1;exitX=0.25;exitY=1;exitDx=0;exitDy=0;entryX=0.453;entryY=0.013;entryDx=0;entryDy=0;entryPerimeter=0;endArrow=open;sourcePerimeterSpacing=8;targetPerimeterSpacing=8;" parent="121" source="98" target="81" edge="1">
                    <mxGeometry relative="1" as="geometry"/>
                </mxCell>
                <mxCell id="97" style="edgeStyle=orthogonalEdgeStyle;rounded=0;orthogonalLoop=1;jettySize=auto;html=1;exitX=0.549;exitY=-0.008;exitDx=0;exitDy=0;entryX=0.75;entryY=1;entryDx=0;entryDy=0;endArrow=open;sourcePerimeterSpacing=8;targetPerimeterSpacing=8;exitPerimeter=0;" parent="121" source="81" target="98" edge="1">
                    <mxGeometry relative="1" as="geometry"/>
                </mxCell>
                <mxCell id="98" value="" style="shape=actor;whiteSpace=wrap;html=1;fillColor=#1ba1e2;strokeColor=#006EAF;fontColor=#ffffff;" parent="121" vertex="1">
                    <mxGeometry x="550" width="100" height="140" as="geometry"/>
                </mxCell>
                <mxCell id="107" style="edgeStyle=orthogonalEdgeStyle;rounded=0;orthogonalLoop=1;jettySize=auto;html=1;exitX=1;exitY=0.25;exitDx=0;exitDy=0;entryX=0;entryY=0.25;entryDx=0;entryDy=0;strokeColor=default;startArrow=open;startFill=0;endArrow=none;endFill=0;sourcePerimeterSpacing=8;targetPerimeterSpacing=8;" parent="121" source="91" target="99" edge="1">
                    <mxGeometry relative="1" as="geometry"/>
                </mxCell>
                <mxCell id="99" value="EVENT_MANAGER" style="rounded=0;whiteSpace=wrap;html=1;fontStyle=1;fillColor=#f8cecc;strokeColor=#b85450;fontSize=14;" parent="121" vertex="1">
                    <mxGeometry x="150" y="190" width="140.5" height="275" as="geometry"/>
                </mxCell>
                <mxCell id="79" style="edgeStyle=orthogonalEdgeStyle;rounded=0;orthogonalLoop=1;jettySize=auto;html=1;exitX=0;exitY=0.25;exitDx=0;exitDy=0;entryX=0.998;entryY=0.128;entryDx=0;entryDy=0;entryPerimeter=0;endArrow=open;sourcePerimeterSpacing=8;targetPerimeterSpacing=8;" parent="121" source="81" target="99" edge="1">
                    <mxGeometry relative="1" as="geometry"/>
                </mxCell>
                <mxCell id="80" style="edgeStyle=orthogonalEdgeStyle;rounded=0;orthogonalLoop=1;jettySize=auto;html=1;exitX=1.003;exitY=0.237;exitDx=0;exitDy=0;entryX=0;entryY=0.75;entryDx=0;entryDy=0;endArrow=open;sourcePerimeterSpacing=8;targetPerimeterSpacing=8;exitPerimeter=0;" parent="121" source="99" target="81" edge="1">
                    <mxGeometry relative="1" as="geometry"/>
                </mxCell>
                <mxCell id="108" style="edgeStyle=orthogonalEdgeStyle;rounded=0;orthogonalLoop=1;jettySize=auto;html=1;exitX=0;exitY=0.75;exitDx=0;exitDy=0;entryX=1;entryY=0.75;entryDx=0;entryDy=0;strokeColor=default;startArrow=open;startFill=0;endArrow=none;endFill=0;sourcePerimeterSpacing=8;targetPerimeterSpacing=8;" parent="121" source="99" target="91" edge="1">
                    <mxGeometry relative="1" as="geometry"/>
                </mxCell>
                <mxCell id="111" value="Raygui" style="rounded=0;whiteSpace=wrap;html=1;fillColor=#e1d5e7;strokeColor=#9673a6;fontSize=16;" parent="121" vertex="1">
                    <mxGeometry x="460" y="300" width="60" height="140" as="geometry"/>
                </mxCell>
                <mxCell id="117" style="edgeStyle=orthogonalEdgeStyle;rounded=0;orthogonalLoop=1;jettySize=auto;html=1;exitX=0.25;exitY=0;exitDx=0;exitDy=0;entryX=0.048;entryY=1.001;entryDx=0;entryDy=0;entryPerimeter=0;strokeColor=default;startArrow=open;startFill=0;endArrow=none;endFill=0;sourcePerimeterSpacing=8;targetPerimeterSpacing=8;" parent="121" source="109" target="81" edge="1">
                    <mxGeometry relative="1" as="geometry"/>
                </mxCell>
                <mxCell id="118" style="edgeStyle=orthogonalEdgeStyle;rounded=0;orthogonalLoop=1;jettySize=auto;html=1;exitX=0.144;exitY=1.006;exitDx=0;exitDy=0;entryX=0.75;entryY=0;entryDx=0;entryDy=0;strokeColor=default;startArrow=open;startFill=0;endArrow=none;endFill=0;sourcePerimeterSpacing=8;targetPerimeterSpacing=8;exitPerimeter=0;" parent="121" source="81" target="109" edge="1">
                    <mxGeometry relative="1" as="geometry"/>
                </mxCell>
                <mxCell id="119" style="edgeStyle=orthogonalEdgeStyle;rounded=0;orthogonalLoop=1;jettySize=auto;html=1;exitX=0;exitY=0.25;exitDx=0;exitDy=0;entryX=1;entryY=0.25;entryDx=0;entryDy=0;strokeColor=default;startArrow=open;startFill=0;endArrow=none;endFill=0;sourcePerimeterSpacing=8;targetPerimeterSpacing=8;" parent="121" source="111" target="109" edge="1">
                    <mxGeometry relative="1" as="geometry"/>
                </mxCell>
                <mxCell id="109" value="GUI - Graphic User Interface" style="rounded=0;whiteSpace=wrap;html=1;fillColor=#e1d5e7;strokeColor=#9673a6;fontSize=16;" parent="121" vertex="1">
                    <mxGeometry x="340" y="300" width="100" height="140" as="geometry"/>
                </mxCell>
                <mxCell id="120" style="edgeStyle=orthogonalEdgeStyle;rounded=0;orthogonalLoop=1;jettySize=auto;html=1;exitX=0;exitY=0.75;exitDx=0;exitDy=0;entryX=1;entryY=0.75;entryDx=0;entryDy=0;strokeColor=default;startArrow=none;startFill=0;endArrow=open;endFill=0;sourcePerimeterSpacing=8;targetPerimeterSpacing=8;" parent="121" source="111" target="109" edge="1">
                    <mxGeometry relative="1" as="geometry"/>
                </mxCell>
                <mxCell id="123" value="SOFTWARE ARCHITECTURE" style="text;strokeColor=none;fillColor=none;html=1;align=center;verticalAlign=middle;whiteSpace=wrap;rounded=0;fontSize=40;fontStyle=1" parent="1" vertex="1">
                    <mxGeometry x="1400.25" y="-350" width="449.5" height="30" as="geometry"/>
                </mxCell>
            </root>
        </mxGraphModel>
    </diagram>
</mxfile>